<svg xmlns="http://www.w3.org/2000/svg" viewBox="0 0 558.97 96.23" role="img" aria-label="TEagle"><path d="M26.69 94.92L26.69 17.34L0.00 17.34L0.00 1.31L70.80 1.31L70.80 17.34L44.09 17.34L44.09 94.92L26.69 94.92ZM103.16 94.92L103.16 1.31L167.36 1.31L167.36 17.34L120.56 17.34L120.56 40.02L155.50 40.02L155.50 56.09L120.56 56.09L120.56 78.91L167.36 78.91L167.36 94.92L103.16 94.92Z" fill="{TE}"/><path d="M193.48 94.92L220.52 1.31L241.88 1.31L268.89 94.92L250.11 94.92L245.50 77.19L216.89 77.19L212.27 94.92L193.48 94.92ZM221.05 61.11L241.34 61.11L231.78 24.19L230.59 24.19L221.05 61.11ZM335.81 96.23C307.11 96.23 292.77 80.15 292.77 47.98C292.77 32.73 296.48 20.92 303.91 12.55C311.33 4.18 321.79 0.00 335.28 0.00C342.09 0.00 347.97 1.07 352.91 3.20C357.86 5.33 361.71 8.35 364.48 12.27L353.53 24.84C351.51 22.26 348.97 20.23 345.92 18.76C342.87 17.28 339.58 16.55 336.06 16.55C328.16 16.55 322.02 19.23 317.65 24.59C313.28 29.95 311.09 37.53 311.09 47.33C311.09 68.86 319.86 79.62 337.39 79.62C338.80 79.62 340.16 79.57 341.48 79.46C342.79 79.35 344.05 79.21 345.23 79.03L345.23 62.48L329.73 62.48L329.73 46.47L362.50 46.47L362.50 92.28C360.57 92.85 357.19 93.66 352.35 94.69C347.51 95.72 342.00 96.23 335.81 96.23ZM396.86 94.92L396.86 1.31L414.27 1.31L414.27 78.91L461.06 78.91L461.06 94.92L396.86 94.92ZM494.77 94.92L494.77 1.31L558.97 1.31L558.97 17.34L512.17 17.34L512.17 40.02L547.11 40.02L547.11 56.09L512.17 56.09L512.17 78.91L558.97 78.91L558.97 94.92L494.77 94.92Z" fill="{AGLE}"/></svg>
