<svg xmlns="http://www.w3.org/2000/svg" viewBox="0 0 558.97 96.23" role="img" aria-label="TEagle"><path d="M26.69 94.92L26.69 1.31L44.09 1.31L44.09 94.92L26.69 94.92ZM0.00 17.34L0.00 1.31L70.80 1.31L70.80 17.34L0.00 17.34ZM103.16 94.92L103.16 1.31L120.56 1.31L120.56 94.92L103.16 94.92ZM103.16 94.92L103.16 78.91L167.36 78.91L167.36 94.92L103.16 94.92ZM103.16 56.09L103.16 40.02L155.50 40.02L155.50 56.09L103.16 56.09ZM103.16 17.34L103.16 1.31L167.36 1.31L167.36 17.34L103.16 17.34Z" fill="{TE}"/><path d="M193.48 94.92L220.52 1.31L241.88 1.31L268.89 94.92L250.11 94.92L231.78 24.19L230.59 24.19L212.27 94.92L193.48 94.92ZM207.12 77.19L207.12 61.11L254.59 61.11L254.59 77.19L207.12 77.19ZM335.81 96.23C321.46 96.23 310.70 92.21 303.52 84.17C296.35 76.13 292.77 64.07 292.77 47.98C292.77 32.73 296.48 20.92 303.91 12.55C311.33 4.18 321.79 0.00 335.28 0.00C342.09 0.00 347.97 1.07 352.91 3.20C357.86 5.33 361.71 8.35 364.48 12.27L353.53 24.84C351.51 22.26 348.97 20.23 345.92 18.76C342.87 17.28 339.58 16.55 336.06 16.55C328.17 16.55 322.03 19.23 317.66 24.59C313.28 29.95 311.09 37.53 311.09 47.33C311.09 58.10 313.29 66.17 317.70 71.55C322.10 76.93 328.66 79.62 337.39 79.62C341.57 79.62 345.25 79.22 348.43 78.41C351.61 77.59 354.21 76.90 356.23 76.33L362.50 92.28C360.57 92.85 357.19 93.66 352.35 94.69C347.51 95.72 342.00 96.23 335.81 96.23ZM345.23 92.28L345.23 46.47L362.50 46.47L362.50 92.28L345.23 92.28ZM329.73 62.48L329.73 46.47L362.11 46.47L362.11 62.48L329.73 62.48ZM396.86 94.92L396.86 1.31L414.27 1.31L414.27 94.92L396.86 94.92ZM396.86 94.92L396.86 78.91L461.06 78.91L461.06 94.92L396.86 94.92ZM494.77 94.92L494.77 1.31L512.17 1.31L512.17 94.92L494.77 94.92ZM494.77 94.92L494.77 78.91L558.97 78.91L558.97 94.92L494.77 94.92ZM494.77 56.09L494.77 40.02L547.11 40.02L547.11 56.09L494.77 56.09ZM494.77 17.34L494.77 1.31L558.97 1.31L558.97 17.34L494.77 17.34Z" fill="{AGLE}"/></svg>
