<svg xmlns="http://www.w3.org/2000/svg" viewBox="0 0 555.94 130.39" role="img" aria-label="TEagle"><path d="M26.69 98.88L26.69 21.30L0.00 21.30L0.00 5.27L70.80 5.27L70.80 21.30L44.09 21.30L44.09 98.88L26.69 98.88ZM103.16 98.88L103.16 5.27L167.36 5.27L167.36 21.30L120.56 21.30L120.56 43.97L155.50 43.97L155.50 60.05L120.56 60.05L120.56 82.86L167.36 82.86L167.36 98.88L103.16 98.88Z" fill="{TE}"/><path d="M244.05 99.53L242.92 84.11L241.34 84.11C240.69 89.47 238.55 93.49 234.92 96.17C231.30 98.85 226.45 100.19 220.38 100.19C212.95 100.19 207.17 98.36 203.04 94.72C198.91 91.07 196.84 85.89 196.84 79.17C196.84 71.35 199.55 65.35 204.95 61.17C210.36 56.99 218.03 54.91 227.97 54.91C230.86 54.91 233.45 55.02 235.71 55.23C237.98 55.45 240.16 55.81 242.27 56.30L242.27 56.09C242.27 52.35 240.67 49.62 237.48 47.88C234.30 46.15 229.56 45.19 223.28 45.02L205.42 44.56L206.73 28.34L221.97 28.55C234.62 28.71 244.03 31.20 250.18 36.02C256.33 40.83 259.41 47.85 259.41 57.08L259.41 82.92L269.09 84.38L269.09 98.88L244.05 99.53ZM242.27 70.98C239.71 70.46 237.41 70.16 235.34 70.07C233.28 69.98 231.10 69.94 228.81 69.94C219.58 69.94 214.97 72.57 214.97 77.84C214.97 82.72 218.24 85.16 224.80 85.16C228.58 85.16 231.75 84.47 234.32 83.09C236.89 81.71 238.83 79.93 240.16 77.75C241.48 75.57 242.18 73.32 242.27 70.98ZM301.53 130.39L300.88 114.83L323.28 114.17C329.44 113.99 333.90 112.29 336.66 109.06C339.43 105.83 340.81 101.07 340.81 94.78L340.81 86.22L339.36 86.22C338.66 90.88 336.84 94.37 333.90 96.70C330.96 99.02 327.04 100.19 322.16 100.19C313.50 100.19 306.77 97.07 301.95 90.83C297.14 84.59 294.73 75.65 294.73 64.00C294.73 52.45 297.14 43.51 301.95 37.18C306.77 30.85 313.55 27.69 322.30 27.69C327.61 27.69 331.64 28.84 334.39 31.15C337.14 33.46 338.93 36.96 339.77 41.66L341.02 41.66L342.14 29.00L358.67 29.00L358.67 92.67C358.67 105.11 355.75 114.28 349.91 120.20C344.06 126.11 334.75 129.28 321.97 129.72L301.53 130.39ZM340.81 64.00C340.81 57.24 339.68 52.30 337.42 49.18C335.16 46.06 331.74 44.50 327.17 44.50C322.64 44.50 319.15 46.20 316.69 49.60C314.23 53.00 313.00 57.80 313.00 64.00C313.00 76.93 317.72 83.39 327.17 83.39C332.27 83.39 335.81 81.85 337.81 78.77C339.81 75.70 340.81 70.77 340.81 64.00ZM437.41 100.19C428.61 100.19 422.27 97.77 418.38 92.94C414.49 88.10 412.55 80.37 412.55 69.73L412.55 16.41L392.78 16.41L392.78 0.00L430.34 0.00L430.34 69.08C430.34 73.47 431.10 76.66 432.62 78.64C434.15 80.62 437.49 81.61 442.67 81.61C446.55 81.61 451.43 80.77 457.31 79.09L459.36 97.42C455.62 98.39 452.02 99.09 448.55 99.53C445.08 99.97 441.36 100.19 437.41 100.19ZM530.44 100.19C518.34 100.19 509.00 97.06 502.41 90.80C495.83 84.54 492.53 75.54 492.53 63.81C492.53 52.39 495.33 43.51 500.94 37.18C506.54 30.85 514.44 27.69 524.62 27.69C534.60 27.69 542.32 30.61 547.77 36.45C553.21 42.30 555.94 50.80 555.94 61.95C555.94 65.12 555.81 68.13 555.55 70.98L511.19 70.98C513.91 79.20 520.85 83.31 532.02 83.31C535.18 83.31 538.30 83.15 541.38 82.82C544.45 82.49 547.59 82.04 550.80 81.47L552.52 98.34C548.04 99.14 543.95 99.64 540.26 99.86C536.57 100.08 533.29 100.19 530.44 100.19ZM510.33 58.59L538.41 58.59C538.41 53.90 537.21 50.29 534.81 47.79C532.42 45.28 529.07 44.03 524.77 44.03C520.72 44.03 517.46 45.29 514.98 47.82C512.49 50.35 510.94 53.94 510.33 58.59Z" fill="{AGLE}"/></svg>
