<svg xmlns="http://www.w3.org/2000/svg" viewBox="0 0 1580 1746" fill="currentColor" role="img" aria-label="TEagle"><path fill-rule="evenodd" d="M816.0 1652.3L816.0 1568.7 813.6 1571.0L811.1 1573.3 796.9 1565.4L782.7 1557.5 779.4 1554.0C775.6 1549.9 731.7 1490.9 732.2 1490.5C732.4 1490.3 737.9 1487.3 744.5 1483.7L756.5 1477.2 761.8 1455.3C764.7 1443.3 768.6 1427.2 770.4 1419.4L773.7 1405.3 755.4 1378.4C745.3 1363.6 736.3 1351.0 735.3 1350.4L733.5 1349.3 658.5 1347.1C617.2 1345.9 582.1 1344.7 580.4 1344.4L577.3 1344.0 563.9 1359.4L550.5 1374.9 544.5 1374.9C538.6 1375.0 498.8 1373.4 386.5 1368.5C355.1 1367.1 326.0 1366.0 321.8 1366.0C317.5 1366.0 314.0 1365.7 314.1 1365.2C314.1 1364.8 321.8 1359.7 331.3 1353.9C340.8 1348.1 355.7 1338.9 364.4 1333.4L380.4 1323.6 376.9 1322.7C375.0 1322.2 353.9 1316.1 330.0 1309.0C306.1 1301.9 275.2 1292.9 261.5 1289.0C247.8 1285.1 218.3 1276.4 196.0 1269.8C173.7 1263.2 150.8 1256.4 145.0 1254.7C139.2 1253.1 134.1 1251.4 133.7 1251.0C133.2 1250.6 134.6 1249.9 136.7 1249.5C145.9 1247.8 256.1 1222.2 256.8 1221.5C257.2 1221.1 170.1 1191.6 126.1 1177.3L83.7 1163.5 79.5 1154.5C69.1 1132.1 53.4 1090.1 44.6 1061.1C28.5 1008.0 19.0 958.9 12.8 897.0L10.6 874.5 10.5 832.0L10.5 789.5 11.8 774.5C18.2 699.5 32.3 630.9 55.0 564.6C91.3 458.5 145.6 364.4 221.4 276.0C231.6 264.1 244.0 251.0 245.0 251.0C245.4 251.0 250.8 254.7 257.1 259.2C263.4 263.7 291.4 282.6 319.4 301.3L370.3 335.2 363.9 338.9C360.4 341.0 345.6 349.7 331.0 358.2C316.4 366.8 284.9 385.4 261.0 399.5C237.1 413.6 204.7 432.7 189.0 441.8L160.5 458.5 177.5 459.7C186.9 460.4 216.3 462.5 243.0 464.5C269.7 466.4 317.4 469.8 349.0 472.0C380.6 474.2 406.9 476.1 407.3 476.3C407.8 476.4 401.9 483.7 394.3 492.5C383.3 505.1 313.9 585.9 232.8 680.5C228.6 685.4 225.2 689.6 225.4 689.7C225.6 689.9 236.9 686.4 250.6 681.9C278.8 672.8 488.6 603.5 491.2 602.5L493.0 601.8 493.0 602.8C493.0 604.1 486.8 620.6 477.7 643.5C468.7 666.0 443.8 730.8 429.8 768.0C424.4 782.6 417.7 800.3 415.1 807.3L410.2 820.1 413.9 817.3C421.7 811.4 479.3 765.8 562.5 699.5L597.5 671.7 597.8 674.1C597.9 675.4 600.0 700.6 602.5 730.0L606.9 783.5 584.3 823.0C571.8 844.7 556.4 871.7 550.1 882.9L538.5 903.2 512.0 926.8C478.7 956.5 465.3 968.3 446.8 984.4C438.6 991.4 432.0 997.6 432.0 998.0C432.0 998.5 457.2 1036.7 487.9 1082.8L543.8 1166.7 585.7 1196.4C608.7 1212.7 628.5 1226.8 629.7 1227.8L632.0 1229.5 613.4 1254.3C603.1 1267.9 594.9 1279.2 595.1 1279.4C595.3 1279.6 627.2 1283.3 666.0 1287.5C704.8 1291.7 737.4 1295.3 738.5 1295.6L740.5 1296.0 745.4 1303.7C748.0 1308.0 763.4 1330.8 779.5 1354.5L808.8 1397.5 799.8 1434.8L790.9 1472.1 795.4 1479.7L799.8 1487.4 789.4 1494.8C783.7 1498.8 779.0 1502.4 779.0 1502.8C779.0 1503.8 800.4 1531.9 801.2 1532.0C801.9 1532.0 810.9 1520.8 814.0 1516.1L815.6 1513.8 822.0 1517.0C825.6 1518.8 831.0 1521.1 834.0 1522.2C840.6 1524.5 856.3 1527.0 864.2 1527.0L870.0 1527.0 870.0 1611.5L870.0 1696.0 899.0 1696.0L928.0 1696.0 928.0 1621.0L928.0 1546.0 1067.0 1546.0L1206.0 1546.0 1206.0 1621.0L1206.0 1696.0 1235.0 1696.0L1264.0 1696.0 1264.0 1487.1L1264.0 1278.2 1235.2 1249.9L1206.5 1221.6 1206.2 1249.8L1206.0 1278.0 1067.0 1278.0L928.0 1278.0 928.0 1256.2L928.1 1234.5 978.0 1184.3C1005.5 1156.7 1028.0 1133.6 1028.0 1133.1C1028.0 1132.6 1005.6 1110.2 978.2 1083.2L928.5 1034.2 928.5 1011.9L928.5 989.5 1067.2 989.2L1206.0 989.0 1206.0 1017.7L1206.0 1046.5 1235.0 1017.5L1264.0 988.5 1264.0 805.8L1264.0 623.0 1235.0 623.0L1206.0 623.0 1206.0 672.5L1206.0 722.0 1067.0 722.0L928.0 722.0 928.0 672.5L928.0 623.0 899.0 623.0L870.0 623.0 870.1 836.2L870.1 1049.5 912.5 1091.0L954.9 1132.5 912.4 1175.0L870.0 1217.5 870.0 1349.8C870.0 1422.5 869.7 1482.0 869.4 1482.0C869.1 1482.0 862.8 1478.6 855.4 1474.4L842.0 1466.9 842.0 1336.7L842.1 1206.5 878.6 1169.5L915.1 1132.5 878.1 1096.2L841.2 1060.0 840.5 1056.0C840.1 1053.8 839.5 1051.8 839.0 1051.5C838.3 1051.0 801.0 1077.7 793.8 1083.9C793.4 1084.3 795.0 1105.0 797.5 1130.0C800.0 1155.0 802.0 1177.1 802.0 1179.1L802.0 1182.8 789.8 1199.3C783.0 1208.4 771.0 1224.6 763.1 1235.4L748.6 1255.0 746.6 1255.0C743.4 1255.0 665.5 1246.8 665.2 1246.5C665.0 1246.3 669.4 1240.8 674.9 1234.4L685.1 1222.6 683.8 1221.4C682.0 1219.6 650.2 1196.8 608.0 1167.2C588.5 1153.4 571.5 1141.1 570.3 1139.8C568.4 1137.7 487.0 1014.9 482.5 1007.3L480.6 1004.1 482.7 1002.3C483.9 1001.3 503.0 984.7 525.2 965.4L565.5 930.3 579.4 905.9C598.8 871.6 616.3 842.0 616.8 842.5C617.0 842.7 614.6 847.5 611.4 853.2C602.6 868.9 571.0 924.0 568.5 928.0C567.3 929.9 553.6 943.0 538.1 957.0C522.7 971.0 510.0 983.0 510.0 983.6C510.0 984.5 536.6 1025.9 583.9 1098.5L596.3 1117.5 604.9 1123.6C659.8 1162.5 719.0 1205.1 719.0 1205.7C719.0 1205.9 716.8 1209.1 714.0 1212.7C711.2 1216.3 709.0 1219.7 709.0 1220.1C709.0 1220.6 710.9 1221.0 713.2 1221.0C715.6 1221.0 721.2 1221.3 725.7 1221.6L733.8 1222.3 749.7 1200.9C758.4 1189.1 766.6 1178.1 767.8 1176.3L770.1 1173.1 768.1 1153.3C767.0 1142.4 764.9 1121.1 763.6 1106.0C762.2 1090.9 760.8 1076.2 760.5 1073.3L759.9 1068.2 771.9 1058.5L784.0 1048.8 784.0 954.9L784.0 861.0 706.6 860.8L629.2 860.5 719.4 725.3C768.9 650.9 810.6 588.8 812.0 587.3C813.4 585.7 829.8 571.2 848.4 555.0L882.2 525.5 892.9 520.7C898.7 518.0 916.3 510.2 932.0 503.3C977.4 483.3 1001.7 472.6 1013.0 467.5L1023.4 462.8 1039.5 462.0C1077.7 459.9 1124.9 458.9 1171.0 459.2L1220.5 459.5 1235.0 456.9C1243.0 455.4 1249.8 454.5 1250.1 454.9C1250.5 455.2 1252.2 463.4 1254.0 473.0C1257.1 489.9 1269.6 551.6 1270.6 555.3L1271.2 557.2 1272.8 554.9C1277.8 547.8 1310.8 474.2 1318.8 452.5C1326.9 430.4 1336.7 392.3 1337.7 379.5L1338.2 372.5 1328.7 339.5C1319.3 307.1 1316.5 298.1 1314.0 292.8L1312.8 290.2 1290.1 275.2C1277.7 267.0 1264.8 258.7 1261.5 256.8C1236.1 242.0 1207.1 229.2 1167.0 215.0L1149.5 208.8 1144.5 209.4C1141.8 209.7 1134.1 211.3 1127.5 212.9C1120.9 214.5 1115.4 215.7 1115.3 215.6C1115.1 215.5 1117.9 208.1 1121.5 199.2C1125.1 190.3 1128.0 182.3 1128.0 181.5C1128.0 179.3 1071.5 122.4 1066.5 119.5C1059.4 115.3 929.6 80.3 905.5 76.1C902.2 75.5 878.1 73.0 852.0 70.5C825.9 68.0 759.8 61.4 705.1 56.0C650.4 50.5 605.4 46.2 605.2 46.5C604.8 46.8 617.0 67.4 629.4 87.3C631.0 89.9 632.1 92.3 631.8 92.5C631.5 92.8 614.2 96.2 593.4 100.0C511.3 115.0 457.5 127.5 427.5 138.5L420.5 141.0 424.0 140.6C425.9 140.3 436.7 138.5 448.0 136.6C459.3 134.6 487.6 130.1 511.0 126.5C552.0 120.2 651.1 103.9 651.9 103.4C652.0 103.3 651.1 101.6 649.7 99.8C645.3 94.0 621.9 56.8 622.3 56.4C622.7 55.9 669.7 60.2 739.5 67.0C762.0 69.2 799.0 72.8 821.5 75.0C882.6 81.0 900.4 82.9 907.9 84.5C927.1 88.5 989.2 104.6 1035.7 117.7L1062.8 125.3 1089.9 152.4L1116.9 179.5 1111.9 185.5C1109.1 188.8 1102.8 196.8 1097.9 203.2L1088.9 215.0 1086.1 215.0C1082.7 215.0 1027.2 209.4 1017.0 208.0L1009.5 207.0 989.5 198.4C978.5 193.6 957.6 184.6 943.0 178.2C928.4 171.9 909.1 163.6 900.1 160.0L883.7 153.2 873.6 156.6C868.1 158.4 832.0 170.1 793.5 182.5C755.0 195.0 717.4 207.1 710.0 209.6L696.5 213.9 759.2 214.0L821.9 214.0 827.2 220.2C846.8 243.0 861.6 257.2 876.7 267.7L882.0 271.3 891.2 272.6C896.3 273.2 907.2 274.1 915.5 274.5L930.5 275.1 939.9 274.0C945.1 273.4 949.5 273.1 949.7 273.4C950.0 273.6 946.1 277.3 941.1 281.6C936.2 285.9 932.3 289.6 932.5 289.8C932.9 290.3 964.6 274.0 986.6 262.2L1001.6 254.0 1036.1 254.0C1055.0 254.0 1070.4 254.3 1070.3 254.7C1070.2 255.2 1065.4 265.3 1059.5 277.3L1048.9 299.0 1045.3 300.5C1043.3 301.3 1033.1 304.5 1022.6 307.6C1012.1 310.6 987.1 318.2 967.0 324.5C946.9 330.7 916.3 340.2 899.0 345.5L867.5 355.1 865.4 357.6C862.8 360.8 845.0 391.3 845.0 392.6C845.0 393.2 869.7 400.8 900.0 409.6C930.2 418.3 955.0 425.8 955.0 426.1C955.0 426.4 943.4 430.3 929.2 434.9C858.3 457.6 721.8 501.8 694.5 510.8L670.5 518.8 712.0 519.0C734.8 519.2 762.4 519.5 773.3 519.9L793.1 520.5 776.3 545.0C736.6 602.6 724.9 619.6 699.3 657.0C684.5 678.7 663.9 708.9 653.6 724.0C643.3 739.1 634.5 751.6 634.1 751.8C633.7 751.9 633.0 746.3 632.6 739.3C631.3 714.1 623.2 615.0 622.5 614.2C622.3 614.0 613.2 621.1 602.3 630.0C579.1 648.9 478.5 729.8 475.6 731.9L473.7 733.3 474.2 731.4C474.5 730.4 490.1 691.1 508.9 644.3C527.6 597.4 543.2 557.9 543.6 556.5L544.2 554.0 529.5 559.1C521.5 561.9 514.7 564.0 514.5 563.8C513.7 563.0 530.7 545.5 539.8 537.9C551.2 528.4 571.4 514.8 592.5 502.4C621.3 485.5 674.9 459.6 711.0 445.1C717.9 442.3 723.1 440.1 722.6 440.0C722.1 440.0 714.2 442.3 705.0 445.0C626.5 468.5 565.4 497.3 525.0 529.7C513.4 538.9 495.8 556.9 488.5 566.8L482.5 575.0 426.0 593.6C394.9 603.8 357.4 616.1 342.7 621.0L315.8 629.9 317.2 628.2C321.9 622.1 344.1 595.9 380.9 553.0C404.3 525.8 433.5 491.6 445.9 477.0L468.3 450.5 459.0 449.6L449.6 448.8 452.5 446.3C485.0 419.5 533.2 393.4 593.5 369.9C601.8 366.7 608.0 364.0 607.4 364.0C606.8 364.0 596.5 366.7 584.4 370.0C513.6 389.2 464.5 412.3 433.8 440.8L426.1 447.9 422.8 447.5C421.0 447.2 383.7 444.7 340.0 441.9C296.3 439.1 259.6 436.5 258.6 436.1L256.7 435.4 263.6 431.3C272.0 426.4 342.9 385.4 410.0 346.8C498.8 295.6 515.1 286.0 513.1 286.0C510.7 286.0 465.1 293.0 427.8 299.1L391.1 305.1 365.3 287.9C351.1 278.4 329.6 263.9 317.5 255.7C305.4 247.5 279.6 229.9 260.2 216.7C240.8 203.6 225.0 192.6 225.2 192.5C225.5 192.2 277.9 175.1 329.0 158.6L352.5 151.0 356.5 147.9C366.3 140.4 428.5 99.5 442.8 91.1L450.2 86.8 471.8 82.5C493.3 78.2 548.0 68.8 559.5 67.5C562.8 67.1 566.0 66.5 566.7 66.1L567.9 65.5 558.9 51.5C554.0 43.8 550.4 37.3 550.8 36.9C551.2 36.5 568.3 30.3 588.9 23.1L626.3 9.9 703.4 18.4C745.8 23.1 810.2 30.1 846.4 34.0L912.3 41.0 991.4 61.0C1034.9 72.0 1072.4 81.5 1074.8 82.1L1079.1 83.3 1101.9 106.9C1114.4 119.9 1132.4 138.6 1141.8 148.5L1159.0 166.5 1161.7 174.7L1164.4 182.8 1179.4 188.5C1202.2 197.1 1245.2 214.7 1256.5 220.0C1262.0 222.5 1271.5 227.7 1277.5 231.5C1302.6 247.0 1337.6 269.4 1339.2 270.9L1340.9 272.5 1356.3 324.4L1371.8 376.4 1363.8 401.4C1350.3 443.8 1345.4 458.1 1340.4 469.3L1335.6 480.0 1326.8 490.8L1318.1 501.5 1318.0 748.0L1317.9 994.5 1278.2 1033.4C1256.4 1054.8 1224.6 1086.1 1207.7 1102.9L1176.9 1133.5 1247.5 1203.5L1318.1 1273.5 1318.0 1504.8L1318.0 1736.0 1067.0 1736.0L816.0 1736.0 816.0 1652.3ZM928.0 1412.5L928.0 1337.0 1067.0 1337.0L1206.0 1337.0 1206.0 1412.5L1206.0 1488.0 1067.0 1488.0L928.0 1488.0 928.0 1412.5ZM1160.0 1133.5L1160.0 1036.0 1080.8 1036.0L1001.5 1036.0 1050.0 1084.5L1098.5 1133.0 1061.0 1170.7C1040.4 1191.5 1018.5 1213.6 1012.5 1219.8L1001.5 1231.0 1080.8 1231.0L1160.0 1231.0 1160.0 1133.5ZM1315.0 1229.2C1314.1 1228.2 1291.9 1206.3 1265.6 1180.5L1217.9 1133.5 1267.0 1085.5C1294.0 1059.1 1316.6 1037.3 1317.1 1037.2L1318.1 1036.8 1317.9 1133.9C1317.8 1187.3 1317.4 1231.0 1317.1 1230.9C1316.8 1230.9 1315.8 1230.1 1315.0 1229.2ZM1374.0 1133.5L1374.0 1036.0 1471.3 1036.0C1524.9 1036.0 1568.9 1036.2 1569.1 1036.4C1569.3 1036.6 1569.4 1080.5 1569.2 1133.9L1569.0 1231.0 1471.5 1231.0L1374.0 1231.0 1374.0 1133.5ZM928.2 855.2L928.5 780.5 1067.2 780.2L1206.0 780.0 1206.0 855.0L1206.0 930.0 1067.0 930.0L928.0 930.0 928.2 855.2ZM1288.1 471.8C1286.8 466.7 1283.9 457.3 1281.8 451.0C1277.1 437.3 1264.3 407.5 1262.5 406.0C1261.3 405.0 1192.4 384.4 1142.1 370.0L1123.7 364.7 1019.1 365.8C961.6 366.4 914.4 366.8 914.3 366.6C914.0 366.3 943.9 357.8 1017.1 337.4L1073.8 321.6 1085.9 294.6C1092.6 279.7 1100.7 262.3 1103.8 256.0L1109.5 244.5 1116.0 240.2C1119.6 237.9 1129.0 232.0 1136.9 227.2L1151.3 218.5 1166.9 223.9C1203.8 236.5 1235.4 250.9 1262.0 267.2C1286.5 282.2 1303.3 293.0 1305.7 295.3L1308.0 297.3 1310.4 305.4C1316.8 326.4 1331.0 376.8 1331.0 378.5C1331.0 381.0 1321.0 416.1 1315.5 432.8L1311.0 446.3 1305.9 455.9C1299.6 467.7 1291.7 481.0 1291.0 481.0C1290.7 481.0 1289.4 476.8 1288.1 471.8ZM1104.5 424.9L1046.5 423.9 1007.5 413.0C986.0 407.0 956.1 398.7 941.0 394.5C925.9 390.3 913.0 386.7 912.5 386.5C910.9 385.7 948.9 386.8 1037.7 390.1L1119.9 393.1 1145.7 400.9C1159.9 405.2 1182.6 412.0 1196.3 416.1C1209.9 420.1 1220.7 423.7 1220.3 424.1C1218.9 425.5 1163.9 425.8 1104.5 424.9ZM1149.5 292.0C1157.2 289.4 1165.8 286.8 1168.5 286.1L1173.5 284.9 1180.3 273.4C1184.1 267.0 1186.9 261.5 1186.5 261.2C1185.9 260.6 1153.3 266.6 1149.1 268.2C1147.8 268.7 1146.1 269.8 1145.3 270.8C1143.8 272.7 1126.8 297.8 1125.6 299.8L1124.9 301.0 1130.2 298.9C1133.1 297.7 1141.8 294.6 1149.5 292.0ZM913.4 260.2C901.6 256.0 892.0 247.3 886.7 236.1L883.6 229.7 883.2 221.7L882.7 213.8 884.0 208.1C885.0 203.5 888.1 195.8 889.6 194.1C889.8 193.9 894.3 195.7 899.5 198.1L909.1 202.5 908.5 205.0C908.2 206.4 907.7 210.7 907.3 214.7L906.7 221.8 908.9 226.3C910.1 228.8 913.1 232.7 915.5 234.9L919.8 238.9 925.6 240.6L931.4 242.3 936.3 241.1C938.9 240.5 943.1 238.7 945.5 237.0L949.8 234.0 952.2 229.0C953.5 226.3 954.8 224.1 955.1 224.0C956.4 224.0 966.0 230.5 966.0 231.5C966.0 232.1 964.7 235.3 963.0 238.8L960.0 245.1 954.8 250.4L949.5 255.6 943.5 258.5L937.5 261.4 928.0 261.7L918.5 262.0 913.4 260.2Z"/></svg>