<?xml version="1.0" encoding="UTF-8" standalone="no"?>
<svg width="1260.47mm" height="434.622mm"
 viewBox="0 0 893.381 308"
 xmlns="http://www.w3.org/2000/svg" xmlns:xlink="http://www.w3.org/1999/xlink" version="1.2" baseProfile="tiny">
<title>TEagle</title>
<desc>TEagle brand banner</desc>
<defs>
</defs>
<g fill="none" stroke="black" stroke-width="1" fill-rule="evenodd" stroke-linecap="square" stroke-linejoin="bevel" >

<g fill="none" stroke="#000000" stroke-opacity="1" stroke-width="1" stroke-linecap="square" stroke-linejoin="bevel" transform="matrix(1,0,0,1,0,0)"
font-family="Sans Serif" font-size="9" font-weight="400" font-style="normal" 
>
</g>

<g fill="#33d6b8" fill-opacity="1" stroke="#000000" stroke-opacity="1" stroke-width="1" stroke-linecap="butt" stroke-linejoin="miter" stroke-miterlimit="4" transform="matrix(0.148912,0,0,0.148912,24,24)"
font-family="Sans Serif" font-size="9" font-weight="400" font-style="normal" 
>
<path vector-effect="none" fill-rule="evenodd" d="M816,1652.3 L816,1568.7 L813.6,1571 L811.1,1573.3 L796.9,1565.4 L782.7,1557.5 L779.4,1554 C775.6,1549.9 731.7,1490.9 732.2,1490.5 C732.4,1490.3 737.9,1487.3 744.5,1483.7 L756.5,1477.2 L761.8,1455.3 C764.7,1443.3 768.6,1427.2 770.4,1419.4 L773.7,1405.3 L755.4,1378.4 C745.3,1363.6 736.3,1351 735.3,1350.4 L733.5,1349.3 L658.5,1347.1 C617.2,1345.9 582.1,1344.7 580.4,1344.4 L577.3,1344 L563.9,1359.4 L550.5,1374.9 L544.5,1374.9 C538.6,1375 498.8,1373.4 386.5,1368.5 C355.1,1367.1 326,1366 321.8,1366 C317.5,1366 314,1365.7 314.1,1365.2 C314.1,1364.8 321.8,1359.7 331.3,1353.9 C340.8,1348.1 355.7,1338.9 364.4,1333.4 L380.4,1323.6 L376.9,1322.7 C375,1322.2 353.9,1316.1 330,1309 C306.1,1301.9 275.2,1292.9 261.5,1289 C247.8,1285.1 218.3,1276.4 196,1269.8 C173.7,1263.2 150.8,1256.4 145,1254.7 C139.2,1253.1 134.1,1251.4 133.7,1251 C133.2,1250.6 134.6,1249.9 136.7,1249.5 C145.9,1247.8 256.1,1222.2 256.8,1221.5 C257.2,1221.1 170.1,1191.6 126.1,1177.3 L83.7,1163.5 L79.5,1154.5 C69.1,1132.1 53.4,1090.1 44.6,1061.1 C28.5,1008 19,958.9 12.8,897 L10.6,874.5 L10.5,832 L10.5,789.5 L11.8,774.5 C18.2,699.5 32.3,630.9 55,564.6 C91.3,458.5 145.6,364.4 221.4,276 C231.6,264.1 244,251 245,251 C245.4,251 250.8,254.7 257.1,259.2 C263.4,263.7 291.4,282.6 319.4,301.3 L370.3,335.2 L363.9,338.9 C360.4,341 345.6,349.7 331,358.2 C316.4,366.8 284.9,385.4 261,399.5 C237.1,413.6 204.7,432.7 189,441.8 L160.5,458.5 L177.5,459.7 C186.9,460.4 216.3,462.5 243,464.5 C269.7,466.4 317.4,469.8 349,472 C380.6,474.2 406.9,476.1 407.3,476.3 C407.8,476.4 401.9,483.7 394.3,492.5 C383.3,505.1 313.9,585.9 232.8,680.5 C228.6,685.4 225.2,689.6 225.4,689.7 C225.6,689.9 236.9,686.4 250.6,681.9 C278.8,672.8 488.6,603.5 491.2,602.5 L493,601.8 L493,602.8 C493,604.1 486.8,620.6 477.7,643.5 C468.7,666 443.8,730.8 429.8,768 C424.4,782.6 417.7,800.3 415.1,807.3 L410.2,820.1 L413.9,817.3 C421.7,811.4 479.3,765.8 562.5,699.5 L597.5,671.7 L597.8,674.1 C597.9,675.4 600,700.6 602.5,730 L606.9,783.5 L584.3,823 C571.8,844.7 556.4,871.7 550.1,882.9 L538.5,903.2 L512,926.8 C478.7,956.5 465.3,968.3 446.8,984.4 C438.6,991.4 432,997.6 432,998 C432,998.5 457.2,1036.7 487.9,1082.8 L543.8,1166.7 L585.7,1196.4 C608.7,1212.7 628.5,1226.8 629.7,1227.8 L632,1229.5 L613.4,1254.3 C603.1,1267.9 594.9,1279.2 595.1,1279.4 C595.3,1279.6 627.2,1283.3 666,1287.5 C704.8,1291.7 737.4,1295.3 738.5,1295.6 L740.5,1296 L745.4,1303.7 C748,1308 763.4,1330.8 779.5,1354.5 L808.8,1397.5 L799.8,1434.8 L790.9,1472.1 L795.4,1479.7 L799.8,1487.4 L789.4,1494.8 C783.7,1498.8 779,1502.4 779,1502.8 C779,1503.8 800.4,1531.9 801.2,1532 C801.9,1532 810.9,1520.8 814,1516.1 L815.6,1513.8 L822,1517 C825.6,1518.8 831,1521.1 834,1522.2 C840.6,1524.5 856.3,1527 864.2,1527 L870,1527 L870,1611.5 L870,1696 L899,1696 L928,1696 L928,1621 L928,1546 L1067,1546 L1206,1546 L1206,1621 L1206,1696 L1235,1696 L1264,1696 L1264,1487.1 L1264,1278.2 L1235.2,1249.9 L1206.5,1221.6 L1206.2,1249.8 L1206,1278 L1067,1278 L928,1278 L928,1256.2 L928.1,1234.5 L978,1184.3 C1005.5,1156.7 1028,1133.6 1028,1133.1 C1028,1132.6 1005.6,1110.2 978.2,1083.2 L928.5,1034.2 L928.5,1011.9 L928.5,989.5 L1067.2,989.2 L1206,989 L1206,1017.7 L1206,1046.5 L1235,1017.5 L1264,988.5 L1264,805.8 L1264,623 L1235,623 L1206,623 L1206,672.5 L1206,722 L1067,722 L928,722 L928,672.5 L928,623 L899,623 L870,623 L870.1,836.2 L870.1,1049.5 L912.5,1091 L954.9,1132.5 L912.4,1175 L870,1217.5 L870,1349.8 C870,1422.5 869.7,1482 869.4,1482 C869.1,1482 862.8,1478.6 855.4,1474.4 L842,1466.9 L842,1336.7 L842.1,1206.5 L878.6,1169.5 L915.1,1132.5 L878.1,1096.2 L841.2,1060 L840.5,1056 C840.1,1053.8 839.5,1051.8 839,1051.5 C838.3,1051 801,1077.7 793.8,1083.9 C793.4,1084.3 795,1105 797.5,1130 C800,1155 802,1177.1 802,1179.1 L802,1182.8 L789.8,1199.3 C783,1208.4 771,1224.6 763.1,1235.4 L748.6,1255 L746.6,1255 C743.4,1255 665.5,1246.8 665.2,1246.5 C665,1246.3 669.4,1240.8 674.9,1234.4 L685.1,1222.6 L683.8,1221.4 C682,1219.6 650.2,1196.8 608,1167.2 C588.5,1153.4 571.5,1141.1 570.3,1139.8 C568.4,1137.7 487,1014.9 482.5,1007.3 L480.6,1004.1 L482.7,1002.3 C483.9,1001.3 503,984.7 525.2,965.4 L565.5,930.3 L579.4,905.9 C598.8,871.6 616.3,842 616.8,842.5 C617,842.7 614.6,847.5 611.4,853.2 C602.6,868.9 571,924 568.5,928 C567.3,929.9 553.6,943 538.1,957 C522.7,971 510,983 510,983.6 C510,984.5 536.6,1025.9 583.9,1098.5 L596.3,1117.5 L604.9,1123.6 C659.8,1162.5 719,1205.1 719,1205.7 C719,1205.9 716.8,1209.1 714,1212.7 C711.2,1216.3 709,1219.7 709,1220.1 C709,1220.6 710.9,1221 713.2,1221 C715.6,1221 721.2,1221.3 725.7,1221.6 L733.8,1222.3 L749.7,1200.9 C758.4,1189.1 766.6,1178.1 767.8,1176.3 L770.1,1173.1 L768.1,1153.3 C767,1142.4 764.9,1121.1 763.6,1106 C762.2,1090.9 760.8,1076.2 760.5,1073.3 L759.9,1068.2 L771.9,1058.5 L784,1048.8 L784,954.9 L784,861 L706.6,860.8 L629.2,860.5 L719.4,725.3 C768.9,650.9 810.6,588.8 812,587.3 C813.4,585.7 829.8,571.2 848.4,555 L882.2,525.5 L892.9,520.7 C898.7,518 916.3,510.2 932,503.3 C977.4,483.3 1001.7,472.6 1013,467.5 L1023.4,462.8 L1039.5,462 C1077.7,459.9 1124.9,458.9 1171,459.2 L1220.5,459.5 L1235,456.9 C1243,455.4 1249.8,454.5 1250.1,454.9 C1250.5,455.2 1252.2,463.4 1254,473 C1257.1,489.9 1269.6,551.6 1270.6,555.3 L1271.2,557.2 L1272.8,554.9 C1277.8,547.8 1310.8,474.2 1318.8,452.5 C1326.9,430.4 1336.7,392.3 1337.7,379.5 L1338.2,372.5 L1328.7,339.5 C1319.3,307.1 1316.5,298.1 1314,292.8 L1312.8,290.2 L1290.1,275.2 C1277.7,267 1264.8,258.7 1261.5,256.8 C1236.1,242 1207.1,229.2 1167,215 L1149.5,208.8 L1144.5,209.4 C1141.8,209.7 1134.1,211.3 1127.5,212.9 C1120.9,214.5 1115.4,215.7 1115.3,215.6 C1115.1,215.5 1117.9,208.1 1121.5,199.2 C1125.1,190.3 1128,182.3 1128,181.5 C1128,179.3 1071.5,122.4 1066.5,119.5 C1059.4,115.3 929.6,80.3 905.5,76.1 C902.2,75.5 878.1,73 852,70.5 C825.9,68 759.8,61.4 705.1,56 C650.4,50.5 605.4,46.2 605.2,46.5 C604.8,46.8 617,67.4 629.4,87.3 C631,89.9 632.1,92.3 631.8,92.5 C631.5,92.8 614.2,96.2 593.4,100 C511.3,115 457.5,127.5 427.5,138.5 L420.5,141 L424,140.6 C425.9,140.3 436.7,138.5 448,136.6 C459.3,134.6 487.6,130.1 511,126.5 C552,120.2 651.1,103.9 651.9,103.4 C652,103.3 651.1,101.6 649.7,99.8 C645.3,94 621.9,56.8 622.3,56.4 C622.7,55.9 669.7,60.2 739.5,67 C762,69.2 799,72.8 821.5,75 C882.6,81 900.4,82.9 907.9,84.5 C927.1,88.5 989.2,104.6 1035.7,117.7 L1062.8,125.3 L1089.9,152.4 L1116.9,179.5 L1111.9,185.5 C1109.1,188.8 1102.8,196.8 1097.9,203.2 L1088.9,215 L1086.1,215 C1082.7,215 1027.2,209.4 1017,208 L1009.5,207 L989.5,198.4 C978.5,193.6 957.6,184.6 943,178.2 C928.4,171.9 909.1,163.6 900.1,160 L883.7,153.2 L873.6,156.6 C868.1,158.4 832,170.1 793.5,182.5 C755,195 717.4,207.1 710,209.6 L696.5,213.9 L759.2,214 L821.9,214 L827.2,220.2 C846.8,243 861.6,257.2 876.7,267.7 L882,271.3 L891.2,272.6 C896.3,273.2 907.2,274.1 915.5,274.5 L930.5,275.1 L939.9,274 C945.1,273.4 949.5,273.1 949.7,273.4 C950,273.6 946.1,277.3 941.1,281.6 C936.2,285.9 932.3,289.6 932.5,289.8 C932.9,290.3 964.6,274 986.6,262.2 L1001.6,254 L1036.1,254 C1055,254 1070.4,254.3 1070.3,254.7 C1070.2,255.2 1065.4,265.3 1059.5,277.3 L1048.9,299 L1045.3,300.5 C1043.3,301.3 1033.1,304.5 1022.6,307.6 C1012.1,310.6 987.1,318.2 967,324.5 C946.9,330.7 916.3,340.2 899,345.5 L867.5,355.1 L865.4,357.6 C862.8,360.8 845,391.3 845,392.6 C845,393.2 869.7,400.8 900,409.6 C930.2,418.3 955,425.8 955,426.1 C955,426.4 943.4,430.3 929.2,434.9 C858.3,457.6 721.8,501.8 694.5,510.8 L670.5,518.8 L712,519 C734.8,519.2 762.4,519.5 773.3,519.9 L793.1,520.5 L776.3,545 C736.6,602.6 724.9,619.6 699.3,657 C684.5,678.7 663.9,708.9 653.6,724 C643.3,739.1 634.5,751.6 634.1,751.8 C633.7,751.9 633,746.3 632.6,739.3 C631.3,714.1 623.2,615 622.5,614.2 C622.3,614 613.2,621.1 602.3,630 C579.1,648.9 478.5,729.8 475.6,731.9 L473.7,733.3 L474.2,731.4 C474.5,730.4 490.1,691.1 508.9,644.3 C527.6,597.4 543.2,557.9 543.6,556.5 L544.2,554 L529.5,559.1 C521.5,561.9 514.7,564 514.5,563.8 C513.7,563 530.7,545.5 539.8,537.9 C551.2,528.4 571.4,514.8 592.5,502.4 C621.3,485.5 674.9,459.6 711,445.1 C717.9,442.3 723.1,440.1 722.6,440 C722.1,440 714.2,442.3 705,445 C626.5,468.5 565.4,497.3 525,529.7 C513.4,538.9 495.8,556.9 488.5,566.8 L482.5,575 L426,593.6 C394.9,603.8 357.4,616.1 342.7,621 L315.8,629.9 L317.2,628.2 C321.9,622.1 344.1,595.9 380.9,553 C404.3,525.8 433.5,491.6 445.9,477 L468.3,450.5 L459,449.6 L449.6,448.8 L452.5,446.3 C485,419.5 533.2,393.4 593.5,369.9 C601.8,366.7 608,364 607.4,364 C606.8,364 596.5,366.7 584.4,370 C513.6,389.2 464.5,412.3 433.8,440.8 L426.1,447.9 L422.8,447.5 C421,447.2 383.7,444.7 340,441.9 C296.3,439.1 259.6,436.5 258.6,436.1 L256.7,435.4 L263.6,431.3 C272,426.4 342.9,385.4 410,346.8 C498.8,295.6 515.1,286 513.1,286 C510.7,286 465.1,293 427.8,299.1 L391.1,305.1 L365.3,287.9 C351.1,278.4 329.6,263.9 317.5,255.7 C305.4,247.5 279.6,229.9 260.2,216.7 C240.8,203.6 225,192.6 225.2,192.5 C225.5,192.2 277.9,175.1 329,158.6 L352.5,151 L356.5,147.9 C366.3,140.4 428.5,99.5 442.8,91.1 L450.2,86.8 L471.8,82.5 C493.3,78.2 548,68.8 559.5,67.5 C562.8,67.1 566,66.5 566.7,66.1 L567.9,65.5 L558.9,51.5 C554,43.8 550.4,37.3 550.8,36.9 C551.2,36.5 568.3,30.3 588.9,23.1 L626.3,9.9 L703.4,18.4 C745.8,23.1 810.2,30.1 846.4,34 L912.3,41 L991.4,61 C1034.9,72 1072.4,81.5 1074.8,82.1 L1079.1,83.3 L1101.9,106.9 C1114.4,119.9 1132.4,138.6 1141.8,148.5 L1159,166.5 L1161.7,174.7 L1164.4,182.8 L1179.4,188.5 C1202.2,197.1 1245.2,214.7 1256.5,220 C1262,222.5 1271.5,227.7 1277.5,231.5 C1302.6,247 1337.6,269.4 1339.2,270.9 L1340.9,272.5 L1356.3,324.4 L1371.8,376.4 L1363.8,401.4 C1350.3,443.8 1345.4,458.1 1340.4,469.3 L1335.6,480 L1326.8,490.8 L1318.1,501.5 L1318,748 L1317.9,994.5 L1278.2,1033.4 C1256.4,1054.8 1224.6,1086.1 1207.7,1102.9 L1176.9,1133.5 L1247.5,1203.5 L1318.1,1273.5 L1318,1504.8 L1318,1736 L1067,1736 L816,1736 L816,1652.3 Z M928,1412.5 L928,1337 L1067,1337 L1206,1337 L1206,1412.5 L1206,1488 L1067,1488 L928,1488 L928,1412.5 Z M1160,1133.5 L1160,1036 L1080.8,1036 L1001.5,1036 L1050,1084.5 L1098.5,1133 L1061,1170.7 C1040.4,1191.5 1018.5,1213.6 1012.5,1219.8 L1001.5,1231 L1080.8,1231 L1160,1231 L1160,1133.5 Z M1315,1229.2 C1314.1,1228.2 1291.9,1206.3 1265.6,1180.5 L1217.9,1133.5 L1267,1085.5 C1294,1059.1 1316.6,1037.3 1317.1,1037.2 L1318.1,1036.8 L1317.9,1133.9 C1317.8,1187.3 1317.4,1231 1317.1,1230.9 C1316.8,1230.9 1315.8,1230.1 1315,1229.2 Z M1374,1133.5 L1374,1036 L1471.3,1036 C1524.9,1036 1568.9,1036.2 1569.1,1036.4 C1569.3,1036.6 1569.4,1080.5 1569.2,1133.9 L1569,1231 L1471.5,1231 L1374,1231 L1374,1133.5 Z M928.2,855.2 L928.5,780.5 L1067.2,780.2 L1206,780 L1206,855 L1206,930 L1067,930 L928,930 L928.2,855.2 Z M1288.1,471.8 C1286.8,466.7 1283.9,457.3 1281.8,451 C1277.1,437.3 1264.3,407.5 1262.5,406 C1261.3,405 1192.4,384.4 1142.1,370 L1123.7,364.7 L1019.1,365.8 C961.6,366.4 914.4,366.8 914.3,366.6 C914,366.3 943.9,357.8 1017.1,337.4 L1073.8,321.6 L1085.9,294.6 C1092.6,279.7 1100.7,262.3 1103.8,256 L1109.5,244.5 L1116,240.2 C1119.6,237.9 1129,232 1136.9,227.2 L1151.3,218.5 L1166.9,223.9 C1203.8,236.5 1235.4,250.9 1262,267.2 C1286.5,282.2 1303.3,293 1305.7,295.3 L1308,297.3 L1310.4,305.4 C1316.8,326.4 1331,376.8 1331,378.5 C1331,381 1321,416.1 1315.5,432.8 L1311,446.3 L1305.9,455.9 C1299.6,467.7 1291.7,481 1291,481 C1290.7,481 1289.4,476.8 1288.1,471.8 Z M1104.5,424.9 L1046.5,423.9 L1007.5,413 C986,407 956.1,398.7 941,394.5 C925.9,390.3 913,386.7 912.5,386.5 C910.9,385.7 948.9,386.8 1037.7,390.1 L1119.9,393.1 L1145.7,400.9 C1159.9,405.2 1182.6,412 1196.3,416.1 C1209.9,420.1 1220.7,423.7 1220.3,424.1 C1218.9,425.5 1163.9,425.8 1104.5,424.9 Z M1149.5,292 C1157.2,289.4 1165.8,286.8 1168.5,286.1 L1173.5,284.9 L1180.3,273.4 C1184.1,267 1186.9,261.5 1186.5,261.2 C1185.9,260.6 1153.3,266.6 1149.1,268.2 C1147.8,268.7 1146.1,269.8 1145.3,270.8 C1143.8,272.7 1126.8,297.8 1125.6,299.8 L1124.9,301 L1130.2,298.9 C1133.1,297.7 1141.8,294.6 1149.5,292 Z M913.4,260.2 C901.6,256 892,247.3 886.7,236.1 L883.6,229.7 L883.2,221.7 L882.7,213.8 L884,208.1 C885,203.5 888.1,195.8 889.6,194.1 C889.8,193.9 894.3,195.7 899.5,198.1 L909.1,202.5 L908.5,205 C908.2,206.4 907.7,210.7 907.3,214.7 L906.7,221.8 L908.9,226.3 C910.1,228.8 913.1,232.7 915.5,234.9 L919.8,238.9 L925.6,240.6 L931.4,242.3 L936.3,241.1 C938.9,240.5 943.1,238.7 945.5,237 L949.8,234 L952.2,229 C953.5,226.3 954.8,224.1 955.1,224 C956.4,224 966,230.5 966,231.5 C966,232.1 964.7,235.3 963,238.8 L960,245.1 L954.8,250.4 L949.5,255.6 L943.5,258.5 L937.5,261.4 L928,261.7 L918.5,262 L913.4,260.2 Z "/>
</g>

<g fill="none" stroke="#000000" stroke-opacity="1" stroke-width="1" stroke-linecap="square" stroke-linejoin="bevel" transform="matrix(1,0,0,1,0,0)"
font-family="Sans Serif" font-size="9" font-weight="400" font-style="normal" 
>
</g>

<g fill="#ffffff" fill-opacity="1" stroke="none" transform="matrix(1,0,0,1,300.881,200.805)"
font-family="Sans Serif" font-size="9" font-weight="400" font-style="normal" 
>
<path vector-effect="none" fill-rule="evenodd" d="M30.8438,0 L30.8438,-77.5781 L4.15625,-77.5781 L4.15625,-93.6094 L74.9531,-93.6094 L74.9531,-77.5781 L48.25,-77.5781 L48.25,0 L30.8438,0 Z M107.313,0 L107.313,-93.6094 L171.516,-93.6094 L171.516,-77.5781 L124.719,-77.5781 L124.719,-54.9063 L159.656,-54.9063 L159.656,-38.8281 L124.719,-38.8281 L124.719,-16.0156 L171.516,-16.0156 L171.516,0 L107.313,0 Z "/>
</g>

<g fill="#33d6b8" fill-opacity="1" stroke="none" transform="matrix(1,0,0,1,300.881,200.805)"
font-family="Sans Serif" font-size="9" font-weight="400" font-style="normal" 
>
<path vector-effect="none" fill-rule="evenodd" d="M197.641,0 L224.672,-93.6094 L246.031,-93.6094 L273.047,0 L254.266,0 L249.656,-17.7344 L221.047,-17.7344 L216.422,0 L197.641,0 Z M225.203,-33.8125 L245.5,-33.8125 L235.938,-70.7344 L234.75,-70.7344 L225.203,-33.8125 Z M339.969,1.3125 C311.271,1.3125 296.922,-14.7708 296.922,-46.9375 C296.922,-62.1875 300.635,-73.9974 308.063,-82.3672 C315.49,-90.737 325.948,-94.9219 339.438,-94.9219 C346.25,-94.9219 352.128,-93.8568 357.07,-91.7266 C362.013,-89.5964 365.87,-86.5729 368.641,-82.6563 L357.688,-70.0781 C355.667,-72.6615 353.13,-74.6901 350.078,-76.1641 C347.026,-77.638 343.74,-78.375 340.219,-78.375 C332.313,-78.375 326.174,-75.6953 321.805,-70.3359 C317.435,-64.9766 315.25,-57.3958 315.25,-47.5938 C315.25,-26.0625 324.016,-15.2969 341.547,-15.2969 C342.953,-15.2969 344.315,-15.3516 345.633,-15.4609 C346.951,-15.5703 348.203,-15.7135 349.391,-15.8906 L349.391,-32.4375 L333.891,-32.4375 L333.891,-48.4531 L366.656,-48.4531 L366.656,-2.64063 C364.729,-2.06771 361.346,-1.26563 356.508,-0.234375 C351.669,0.796875 346.156,1.3125 339.969,1.3125 Z M401.016,0 L401.016,-93.6094 L418.422,-93.6094 L418.422,-16.0156 L465.219,-16.0156 L465.219,0 L401.016,0 Z M498.922,0 L498.922,-93.6094 L563.125,-93.6094 L563.125,-77.5781 L516.328,-77.5781 L516.328,-54.9063 L551.266,-54.9063 L551.266,-38.8281 L516.328,-38.8281 L516.328,-16.0156 L563.125,-16.0156 L563.125,0 L498.922,0 Z "/>
</g>
</g>
</svg>
